PathFileType	4	(X/Y/Z)	c:/Users/goper/Files/vsCode/490R/osim_files/C10/C10_Fast_06.trc
DataRate	CameraRate	NumFrames	NumMarkers	Units                	OrigDataRate	OrigDataStartFrame	OrigNumFrames
250.00	250.00	7	36	mm	250.0	540	2157
                Frame#	Time	LPSIS			LASIS			LTH1			LTH2			LTH3			LTH4			LLFE			LMFE			LSH1			LSH2			LSH3			LSH4			LLMAL			LMMAL			LCAL			LMTP5			LTOE			LMTP1			RPSIS			RASIS			RTH1			RTH2			RTH3			RTH4			RLFE			RMFE			RSH1			RSH2			RSH3			RSH4			RLMAL			RMMAL			RCAL			RMTP1			RTOE			RMTP5		
		X1	Y1	Z1	X2	Y2	Z2	X3	Y3	Z3	X4	Y4	Z4	X5	Y5	Z5	X6	Y6	Z6	X7	Y7	Z7	X8	Y8	Z8	X9	Y9	Z9	X10	Y10	Z10	X11	Y11	Z11	X12	Y12	Z12	X13	Y13	Z13	X14	Y14	Z14	X15	Y15	Z15	X16	Y16	Z16	X17	Y17	Z17	X18	Y18	Z18	X19	Y19	Z19	X20	Y20	Z20	X21	Y21	Z21	X22	Y22	Z22	X23	Y23	Z23	X24	Y24	Z24	X25	Y25	Z25	X26	Y26	Z26	X27	Y27	Z27	X28	Y28	Z28	X29	Y29	Z29	X30	Y30	Z30	X31	Y31	Z31	X32	Y32	Z32	X33	Y33	Z33	X34	Y34	Z34	X35	Y35	Z35	X36	Y36	Z36

540	2.15600	1585.38904	1010.66736	401.35553	1442.76880	991.68201	548.91949	1550.84766	786.13782	592.03369	1551.30090	737.32831	585.52643	0.00000	0.00000	0.00000	0.00000	0.00000	0.00000	0.00000	0.00000	0.00000	1571.06873	476.09378	400.21793	0.00000	0.00000	0.00000	0.00000	0.00000	0.00000	0.00000	0.00000	0.00000	1691.33423	368.55890	512.91309	1688.92871	95.15361	473.22833	0.00000	0.00000	0.00000	0.00000	0.00000	0.00000	1582.41272	31.63256	484.29486	1530.14026	53.75807	422.28061	1555.43042	12.12401	373.25903	1585.57385	1001.66962	319.27206	1423.50891	978.38306	212.34840	0.00000	0.00000	0.00000	1397.39258	677.34717	167.53294	1375.54346	743.29602	163.63519	1354.29932	706.15668	165.07924	1279.56470	494.09323	222.65173	1236.13928	504.06091	328.02838	1324.60144	386.23901	236.06931	1311.50513	346.67279	231.06340	1266.33875	401.62625	219.14667	1261.76697	358.60239	220.43861	1216.77539	98.11557	271.49625	0.00000	0.00000	0.00000	1245.72083	36.04040	330.61554	0.00000	0.00000	0.00000	1046.23535	104.58107	259.40097	1100.64795	72.11291	212.26100
541	2.16000	1579.75146	1010.15564	400.33640	1431.55200	990.93799	549.12085	1546.79395	785.48798	591.72729	1547.76770	736.89038	585.48743	0.00000	0.00000	0.00000	0.00000	0.00000	0.00000	0.00000	0.00000	0.00000	1568.37061	475.69849	400.08603	0.00000	0.00000	0.00000	0.00000	0.00000	0.00000	0.00000	0.00000	0.00000	1688.40747	367.84113	512.77850	1688.67029	95.47555	473.06973	0.00000	0.00000	0.00000	0.00000	0.00000	0.00000	1582.40906	31.61708	484.27505	1528.45959	54.26421	420.91895	1555.35156	12.04917	373.23071	1579.16882	1000.89355	318.55331	1414.71460	975.38794	212.60422	1420.86279	708.90228	164.26335	1391.75220	673.30194	169.86084	1370.03259	741.45923	163.34312	1349.32361	704.11761	164.90175	1274.95081	491.98853	223.10886	1231.08435	501.08105	328.74911	1318.35132	385.20630	232.61687	1303.00171	344.34329	230.81436	1258.59729	400.54449	219.14537	1253.37610	358.09933	219.60982	1200.32166	98.27937	269.24072	0.00000	0.00000	0.00000	1228.26746	35.66142	327.76538	0.00000	0.00000	0.00000	1029.77283	109.43277	258.57773	1082.98901	74.51657	211.29123
542	2.16400	1572.35864	1007.49957	402.39548	1432.85376	989.41919	548.92450	1542.78003	784.93494	591.42535	1544.20447	736.50055	585.44659	0.00000	0.00000	0.00000	0.00000	0.00000	0.00000	0.00000	0.00000	0.00000	1565.62781	475.28653	399.90930	0.00000	0.00000	0.00000	0.00000	0.00000	0.00000	0.00000	0.00000	0.00000	1688.32214	369.25912	511.86462	1688.44678	95.89928	472.86618	0.00000	0.00000	0.00000	0.00000	0.00000	0.00000	1582.44971	31.67735	484.29950	1528.43518	54.18649	420.88657	1555.32031	11.99492	373.22772	1572.80322	1000.12903	317.76035	1408.33765	974.18878	212.76442	1415.81421	707.52460	164.44383	1387.90063	673.94208	167.54735	1364.58289	739.48816	163.18272	1344.18262	701.88379	164.63547	1270.24524	489.88501	223.66792	1226.02075	499.71536	329.04147	1310.31738	382.50241	232.23851	1293.96191	342.29892	230.17990	1250.86621	399.49634	219.19556	1244.57129	357.28369	219.31874	1174.56042	103.28389	261.35382	0.00000	0.00000	0.00000	1211.28430	34.81044	324.67670	0.00000	0.00000	0.00000	1013.97565	113.88665	258.10965	1066.23169	78.26466	210.13600
543	2.16800	1566.40759	1006.88477	401.58102	1427.72681	988.32098	548.86499	1538.54309	784.30096	591.04767	1540.48035	736.06287	585.35846	0.00000	0.00000	0.00000	0.00000	0.00000	0.00000	0.00000	0.00000	0.00000	1562.76221	474.95724	399.67480	0.00000	0.00000	0.00000	0.00000	0.00000	0.00000	0.00000	0.00000	0.00000	1686.14954	369.29272	511.55261	1688.31567	96.39941	472.65775	0.00000	0.00000	0.00000	0.00000	0.00000	0.00000	1582.49805	31.68713	484.24426	1528.43457	54.02027	420.92862	1555.32715	11.99866	373.29123	1566.34875	999.35651	317.01367	1401.48218	972.90015	212.72348	1410.84851	706.11987	164.62773	1383.33044	672.19629	167.56834	1359.26538	737.52179	162.89816	1339.20984	699.35315	164.52811	1265.45496	487.79590	224.16171	1222.15515	498.37457	329.18439	1302.32886	380.01120	231.86647	1285.05469	340.49957	229.52725	1243.27515	398.65143	219.21782	1235.86658	356.57990	219.05440	1159.25916	103.62257	259.31982	0.00000	0.00000	0.00000	1194.45667	34.41838	321.14832	0.00000	0.00000	0.00000	998.50696	118.45229	257.65826	1051.44800	81.05396	209.05240
544	2.17200	1560.46399	1006.20721	400.77432	0.00000	0.00000	0.00000	1534.35547	783.81195	590.63544	1536.76013	735.73663	585.22351	0.00000	0.00000	0.00000	0.00000	0.00000	0.00000	0.00000	0.00000	0.00000	1562.50037	475.27792	398.26083	1645.54895	425.60052	522.29004	0.00000	0.00000	0.00000	0.00000	0.00000	0.00000	1683.90942	369.34964	511.22311	1688.09949	96.93675	472.40915	0.00000	0.00000	0.00000	0.00000	0.00000	0.00000	1582.50989	31.66932	484.18732	1528.38843	53.89790	420.92758	1555.20752	11.86441	373.21487	1559.90710	998.59424	316.22992	1394.58630	971.58948	212.71053	1405.93726	704.60895	164.93037	1378.82874	670.44757	167.59499	1354.00537	735.38440	162.73198	1334.45288	697.14197	164.17014	1260.59998	485.85101	224.59523	1218.97815	495.97479	330.89380	1294.43799	377.77740	231.46077	1276.23804	338.88138	228.89249	1235.73572	397.92618	219.24893	1227.30554	356.05807	218.82753	1153.41382	99.85221	262.44928	0.00000	0.00000	0.00000	1178.54382	33.50866	318.02814	0.00000	0.00000	0.00000	983.03979	122.74480	258.22925	1034.88269	85.52268	208.02966
545	2.17600	1554.48108	1005.53894	399.95120	1417.28442	986.16779	548.67096	1530.03564	783.33093	590.14551	1532.94727	735.40234	585.03314	0.00000	0.00000	0.00000	0.00000	0.00000	0.00000	0.00000	0.00000	0.00000	1556.51343	474.26102	399.24591	1642.79004	425.32199	521.88599	0.00000	0.00000	0.00000	0.00000	0.00000	0.00000	1681.65393	369.47931	510.85580	1687.88855	97.44882	472.07657	0.00000	0.00000	0.00000	0.00000	0.00000	0.00000	1582.55762	31.71590	484.12106	1528.40112	53.77551	420.92279	1555.26562	11.89333	373.24115	1553.42285	997.76880	315.48108	1386.96741	970.28552	212.41074	1401.06152	703.07617	165.20067	1374.47144	668.50128	167.71939	1348.81897	733.23346	162.59413	1329.69348	694.70929	163.85548	1255.46716	483.92224	224.96773	1217.23950	494.19458	331.86423	1285.61548	374.66583	231.76535	1267.49963	337.48810	228.22711	1228.32190	397.34460	219.27957	1218.82581	355.71915	218.55734	1129.97546	104.71396	255.10593	0.00000	0.00000	0.00000	1162.64124	33.30934	314.33771	0.00000	0.00000	0.00000	968.51880	127.02042	258.23807	1019.75793	90.01798	207.02014
546	2.18000	1548.44580	1004.81647	399.23605	1411.76575	985.16864	548.48083	1525.57373	782.81708	589.63513	1529.02393	735.09753	584.83557	0.00000	0.00000	0.00000	0.00000	0.00000	0.00000	0.00000	0.00000	0.00000	1553.15063	473.83081	399.03113	1639.88000	424.98007	521.44116	0.00000	0.00000	0.00000	1636.44604	364.99759	506.55994	1679.25891	369.55566	510.42056	1687.51355	97.99204	471.73358	0.00000	0.00000	0.00000	0.00000	0.00000	0.00000	1582.55066	31.67438	484.10083	1528.32825	53.68326	420.86261	1555.25793	11.88574	373.25595	1546.96045	996.95190	314.70386	1380.03442	969.09937	212.33852	1396.22961	701.51636	165.50749	1370.07129	666.67712	167.77368	1343.62805	730.96710	162.52028	1324.77039	691.88885	163.86826	1250.15210	482.18372	225.18732	1209.16235	492.47635	333.86517	1278.74353	373.91223	230.53244	1258.88721	336.31335	227.47447	1220.87988	396.86871	219.28972	1210.51245	355.42407	218.26222	1124.50879	101.54811	257.89291	0.00000	0.00000	0.00000	1147.83728	33.02230	311.22537	0.00000	0.00000	0.00000	955.33606	132.13571	257.35974	1005.48828	94.48989	205.92140
